<svg xmlns="http://www.w3.org/2000/svg" viewBox="0 0 1200 750">
  <rect width="1200" height="750" fill="#0b0d12"/>
  <g transform="translate(120 90)">
    <rect width="960" height="600" rx="18" fill="#13161d" stroke="#2a2f3b" stroke-width="2"/>
    <rect width="200" height="600" rx="18" fill="#1a1e27"/>
    <rect x="182" width="18" height="600" fill="#1a1e27"/>
    <rect x="32" y="40" width="120" height="18" rx="5" fill="#6d84ff"/>
    <g fill="#9aa1b2"><rect x="32" y="110" width="130" height="12" rx="4"/><rect x="32" y="150" width="100" height="12" rx="4"/><rect x="32" y="190" width="116" height="12" rx="4"/><rect x="32" y="230" width="90" height="12" rx="4"/></g>
    <rect x="240" y="40" width="210" height="100" rx="12" fill="#1a1e27"/><rect x="264" y="64" width="80" height="10" rx="3" fill="#9aa1b2"/><rect x="264" y="90" width="140" height="26" rx="5" fill="#eef0f5"/>
    <rect x="474" y="40" width="210" height="100" rx="12" fill="#1a1e27"/><rect x="498" y="64" width="80" height="10" rx="3" fill="#9aa1b2"/><rect x="498" y="90" width="110" height="26" rx="5" fill="#6d84ff"/>
    <rect x="708" y="40" width="210" height="100" rx="12" fill="#1a1e27"/><rect x="732" y="64" width="80" height="10" rx="3" fill="#9aa1b2"/><rect x="732" y="90" width="124" height="26" rx="5" fill="#c6f432"/>
    <rect x="240" y="170" width="678" height="390" rx="12" fill="#1a1e27"/>
    <path d="M280 240h600M280 320h600M280 400h600M280 480h600" stroke="#2a2f3b" stroke-width="2"/>
    <g fill="#6d84ff">
      <rect x="300" y="360" width="44" height="160" rx="6"/><rect x="380" y="300" width="44" height="220" rx="6"/><rect x="460" y="400" width="44" height="120" rx="6"/><rect x="540" y="250" width="44" height="270" rx="6"/><rect x="620" y="330" width="44" height="190" rx="6"/><rect x="700" y="280" width="44" height="240" rx="6"/><rect x="780" y="380" width="44" height="140" rx="6"/>
    </g>
    <g fill="#c6f432" opacity=".85">
      <rect x="348" y="420" width="20" height="100" rx="4"/><rect x="428" y="380" width="20" height="140" rx="4"/><rect x="508" y="440" width="20" height="80" rx="4"/><rect x="588" y="360" width="20" height="160" rx="4"/><rect x="668" y="410" width="20" height="110" rx="4"/><rect x="748" y="370" width="20" height="150" rx="4"/><rect x="828" y="430" width="20" height="90" rx="4"/>
    </g>
  </g>
</svg>
