<svg xmlns="http://www.w3.org/2000/svg" viewBox="0 0 1200 750">
  <defs>
    <pattern id="dots" width="24" height="24" patternUnits="userSpaceOnUse">
      <circle cx="1" cy="1" r="1.4" fill="#d6d0c1"/>
    </pattern>
  </defs>
  <rect width="1200" height="750" fill="#f3f0e8"/>
  <rect width="1200" height="750" fill="url(#dots)"/>
  <g transform="translate(90 110)">
    <rect width="190" height="30" rx="15" fill="#fbfaf6" stroke="#d6d0c1" stroke-width="2"/>
    <circle cx="22" cy="15" r="6" fill="#2f7d4f"/>
    <rect x="38" y="10" width="130" height="10" rx="4" fill="#5f5b50"/>
    <text x="0" y="150" font-family="Georgia, serif" font-size="110" fill="#16150f">Alex</text>
    <text x="0" y="255" font-family="Georgia, serif" font-size="110" fill="#16150f">Chica Cox</text>
    <text x="0" y="320" font-family="Georgia, serif" font-style="italic" font-size="40" fill="#c2410c">claras, rápidas y accesibles.</text>
    <rect y="370" width="440" height="14" rx="5" fill="#5f5b50"/>
    <rect y="398" width="360" height="14" rx="5" fill="#5f5b50"/>
    <rect y="450" width="170" height="54" rx="6" fill="#c2410c"/>
    <rect x="186" y="450" width="170" height="54" rx="6" fill="none" stroke="#16150f" stroke-width="2"/>
  </g>
  <g transform="translate(700 130)">
    <rect x="10" y="10" width="400" height="470" rx="22" fill="#16150f"/>
    <rect width="400" height="470" rx="22" fill="#fbfaf6" stroke="#16150f" stroke-width="2"/>
    <circle cx="68" cy="70" r="36" fill="#1f3a5f"/>
    <rect x="124" y="52" width="150" height="20" rx="5" fill="#16150f"/>
    <rect x="124" y="82" width="200" height="10" rx="4" fill="#a29e91"/>
    <path d="M32 150h336M32 210h336M32 270h336M32 330h336M32 390h336" stroke="#d6d0c1" stroke-width="2" stroke-dasharray="6 6"/>
    <g fill="#a29e91"><rect x="32" y="170" width="70" height="10" rx="3"/><rect x="32" y="230" width="70" height="10" rx="3"/><rect x="32" y="290" width="70" height="10" rx="3"/><rect x="32" y="350" width="70" height="10" rx="3"/></g>
    <g fill="#16150f"><rect x="130" y="168" width="200" height="14" rx="4"/><rect x="130" y="228" width="170" height="14" rx="4"/><rect x="130" y="288" width="210" height="14" rx="4"/><rect x="130" y="348" width="150" height="14" rx="4"/></g>
    <rect x="32" y="416" width="70" height="26" rx="5" fill="#c2410c"/>
    <rect x="112" y="416" width="70" height="26" rx="5" fill="#1f3a5f"/>
    <rect x="192" y="416" width="70" height="26" rx="5" fill="#f3f0e8" stroke="#d6d0c1"/>
    <rect x="272" y="416" width="70" height="26" rx="5" fill="#16150f"/>
  </g>
</svg>
